<?xml version="1.0" standalone="no"?>
<!DOCTYPE svg PUBLIC "-//W3C//DTD SVG 20010904//EN"
 "http://www.w3.org/TR/2001/REC-SVG-20010904/DTD/svg10.dtd">
<svg version="1.0" xmlns="http://www.w3.org/2000/svg"
 width="628.000000pt" height="628.000000pt" viewBox="0 0 628.000000 628.000000"
 preserveAspectRatio="xMidYMid meet">
<metadata>
Created by potrace 1.11, written by Peter Selinger 2001-2013
</metadata>
<g transform="translate(0.000000,628.000000) scale(0.100000,-0.100000)"
fill="#000000" stroke="none">
<path d="M2908 6195 c-2 -2 -40 -6 -84 -9 -45 -4 -95 -9 -110 -11 -16 -3 -42
-7 -59 -10 -16 -2 -48 -7 -70 -11 -257 -38 -652 -174 -1000 -345 -389 -190
-724 -477 -989 -847 -128 -178 -247 -391 -304 -547 -17 -44 -46 -116 -65 -161
-48 -111 -112 -312 -147 -458 -32 -135 -40 -185 -69 -421 -9 -70 -7 -528 2
-575 3 -14 8 -52 12 -85 10 -95 34 -222 60 -330 14 -55 27 -109 30 -121 27
-118 125 -364 219 -549 78 -152 193 -343 208 -344 4 -1 -16 37 -45 84 -73 120
-83 137 -141 250 -150 287 -265 649 -302 950 -3 22 -7 46 -10 54 -2 8 -6 64
-8 125 -2 61 -2 91 0 66 9 -101 37 -301 56 -385 10 -49 21 -99 23 -109 13 -61
63 -218 105 -333 77 -209 207 -462 331 -645 118 -173 369 -455 529 -592 311
-268 664 -467 1066 -602 102 -34 349 -99 414 -108 65 -10 115 -17 140 -22 117
-19 623 -27 775 -12 115 12 280 40 378 64 9 2 26 6 36 8 112 25 364 110 488
165 274 120 467 234 693 410 124 96 131 103 289 258 79 79 152 143 161 143 10
0 33 19 53 43 58 71 90 103 85 87 -3 -8 -15 -46 -27 -83 -27 -81 -23 -89 55
-114 39 -12 62 -14 81 -7 24 8 65 65 121 168 10 17 50 87 91 155 40 67 69 126
64 130 -4 4 -156 56 -338 116 -181 59 -335 110 -341 112 -7 2 -27 -22 -45 -54
-19 -32 -38 -66 -44 -75 -5 -10 -50 -85 -98 -168 -49 -83 -86 -157 -83 -165 3
-8 19 -20 37 -28 l31 -12 -90 -87 c-278 -264 -655 -490 -1032 -617 -52 -18
-102 -34 -110 -36 -8 -2 -62 -15 -119 -30 -171 -44 -392 -75 -531 -76 -88 -1
-432 17 -492 26 -18 2 -55 7 -83 10 -103 12 -256 44 -425 90 -18 5 -162 55
-245 86 -161 59 -428 220 -609 366 -152 124 -341 315 -386 390 -14 23 22 -8
102 -88 315 -316 596 -506 979 -660 182 -73 445 -141 646 -169 46 -6 97 -13
115 -16 42 -5 516 -6 543 -1 11 3 47 8 80 11 95 11 123 16 245 42 63 14 124
27 134 29 33 7 219 66 251 80 17 7 50 20 75 30 66 26 270 124 270 130 0 3 -15
-1 -32 -9 -177 -78 -234 -102 -333 -136 -126 -43 -321 -93 -430 -110 -38 -6
-81 -13 -95 -15 -132 -24 -584 -24 -705 -1 -11 2 -42 7 -70 10 -101 13 -130
18 -218 37 -376 80 -731 243 -1052 483 -156 116 -393 354 -512 513 -279 371
-459 815 -516 1273 -13 101 -15 497 -3 565 3 17 8 48 10 70 25 211 111 495
220 728 87 187 252 439 387 592 261 294 610 543 959 685 30 12 69 28 85 35 76
32 295 97 370 109 17 3 55 10 85 16 30 6 73 13 95 16 22 3 51 8 65 11 43 10
522 11 590 2 374 -51 631 -130 926 -283 201 -105 361 -215 619 -426 72 -58
145 -117 164 -130 l34 -24 -7 29 c-7 28 -72 126 -88 133 -5 2 -8 9 -8 15 0 27
219 -225 382 -440 157 -207 222 -309 321 -507 39 -78 76 -145 82 -151 7 -5 17
-23 23 -40 53 -150 65 -176 75 -166 6 6 11 46 12 88 2 110 2 111 22 83 9 -14
17 -26 18 -28 1 -1 9 0 18 3 12 5 13 13 6 38 -5 17 -5 26 0 21 11 -12 45 -145
66 -259 31 -170 56 -280 70 -308 8 -16 17 -54 21 -85 13 -118 28 -66 26 93 l0
70 14 -69 c7 -38 15 -71 18 -73 16 -17 22 23 20 147 0 77 0 139 2 138 1 -2 12
-47 23 -101 34 -160 40 -152 41 48 0 164 -6 223 -35 366 -34 168 -106 385
-186 562 -103 226 -176 351 -304 522 -219 293 -600 636 -919 829 -109 66 -113
68 -286 156 -163 83 -572 215 -785 254 -16 3 -39 8 -50 10 -11 2 -47 7 -80 11
-32 3 -66 10 -75 15 -28 15 -154 23 -402 25 -136 1 -249 1 -250 0z m1576 -334
c47 -22 86 -43 86 -46 0 -3 -8 -2 -17 4 -30 15 -166 77 -203 91 -19 7 -39 17
-45 22 -14 13 76 -23 179 -71z m222 -116 c111 -63 205 -125 190 -125 -4 0 -26
13 -49 28 -57 39 -236 142 -247 142 -5 0 -12 5 -15 10 -11 18 4 11 121 -55z
m14 -111 c0 -2 -9 0 -20 6 -11 6 -20 13 -20 16 0 2 9 0 20 -6 11 -6 20 -13 20
-16z m50 -30 c0 -2 -9 0 -20 6 -11 6 -20 13 -20 16 0 2 9 0 20 -6 11 -6 20
-13 20 -16z m374 -158 c105 -84 231 -203 287 -271 18 -22 -18 10 -81 72 -103
100 -201 186 -285 251 -82 62 -139 102 -147 102 -4 0 -8 5 -8 11 0 13 105 -61
234 -165z m-324 128 c0 -2 -9 0 -20 6 -11 6 -20 13 -20 16 0 2 9 0 20 -6 11
-6 20 -13 20 -16z m176 -124 c34 -25 88 -68 120 -96 83 -69 304 -287 304 -298
0 -5 -57 46 -126 115 -69 68 -131 129 -138 134 -81 71 -157 133 -233 189 -51
38 -93 70 -93 73 0 5 56 -35 166 -117z m812 -898 c60 -105 132 -249 160 -317
57 -137 92 -234 92 -251 0 -11 -11 13 -24 51 -14 39 -31 84 -40 100 -9 17 -16
33 -16 37 0 9 -73 160 -164 335 -80 157 -85 181 -8 45z m161 -387 c0 -5 -8 6
-19 25 -11 19 -19 40 -19 45 0 6 8 -6 19 -25 11 -19 19 -39 19 -45z m51 -140
c38 -110 88 -293 95 -340 2 -22 15 -98 21 -130 2 -11 6 -42 9 -70 4 -50 -14
30 -55 250 -12 61 -43 177 -70 259 -28 82 -50 151 -50 154 0 16 12 -15 50
-123z m-759 -2786 c3 -20 -8 -39 -45 -80 -27 -30 -52 -54 -55 -54 -3 0 -5 -4
-3 -8 1 -5 -2 -6 -7 -2 -6 3 -39 -15 -73 -40 -541 -399 -911 -582 -1353 -670
-66 -13 -142 -26 -170 -30 -72 -10 -508 -14 -585 -5 -47 5 -18 7 105 7 155 1
341 9 390 18 11 1 48 6 83 10 34 4 64 11 67 15 3 5 14 6 25 3 11 -3 26 0 33 6
8 6 16 8 20 5 3 -3 31 0 63 7 41 9 51 15 38 20 -11 4 2 6 31 6 80 -1 367 96
561 189 83 40 306 163 314 173 3 4 19 15 35 25 32 20 172 124 191 141 6 5 29
24 50 40 21 17 92 81 157 143 66 62 121 112 122 110 2 -2 5 -15 6 -29z m-71
-8 c0 -12 -140 -144 -230 -217 -177 -143 -342 -250 -539 -348 -116 -58 -340
-151 -347 -143 -3 2 8 9 23 15 114 42 161 62 258 107 289 135 579 342 789 562
31 33 46 41 46 24z m72 -94 c-34 -35 -59 -67 -55 -71 4 -4 1 -6 -7 -4 -8 2
-14 -3 -12 -10 1 -6 -4 -11 -10 -10 -7 2 -12 -3 -10 -9 1 -7 -4 -12 -10 -10
-7 1 -12 -4 -10 -10 1 -7 -1 -12 -5 -12 -19 3 -33 -2 -33 -12 0 -5 6 -7 13 -3
15 9 14 8 -48 -47 -27 -24 -44 -36 -36 -26 19 24 -1 22 -22 -3 -10 -12 -12
-20 -5 -20 6 0 -11 -17 -38 -37 -61 -46 -62 -48 -99 -76 -90 -71 -260 -174
-410 -249 -104 -53 -249 -117 -275 -123 -8 -2 -37 -12 -65 -23 -50 -19 -277
-87 -325 -96 -14 -2 -56 -11 -95 -19 -132 -29 -394 -58 -331 -37 16 5 52 12
80 15 378 46 668 130 998 289 64 31 118 63 122 71 3 8 12 12 21 9 10 -4 15 -2
13 7 -2 9 4 13 16 11 10 -2 16 1 13 5 -7 11 164 119 182 115 7 -2 10 1 7 7 -3
5 8 20 26 32 105 74 237 190 371 327 44 45 85 82 91 82 6 0 -18 -28 -52 -63z
m178 11 c0 -15 -87 -105 -260 -269 -9 -9 -59 -50 -111 -91 -150 -121 -256
-192 -444 -298 -57 -33 -197 -102 -284 -139 -75 -34 -376 -137 -421 -145 -14
-2 -61 -13 -105 -24 -87 -23 -342 -62 -390 -61 -16 0 38 11 120 24 254 39 388
74 625 162 371 138 792 417 1109 735 90 91 130 124 143 120 10 -2 18 -9 18
-14z m-420 -172 c0 -2 -8 -10 -17 -17 -16 -13 -17 -12 -4 4 13 16 21 21 21 13z
m-3941 -89 c341 -307 880 -588 1316 -687 55 -13 104 -26 109 -30 14 -13 -189
37 -329 81 -267 84 -544 217 -771 369 -163 110 -354 264 -404 325 -31 38 -10
22 79 -58z m2936 -387 c-27 -10 -57 -18 -65 -18 -8 0 8 8 35 18 28 10 57 18
65 18 8 0 -7 -8 -35 -18z m-100 -30 c-11 -5 -29 -8 -40 -8 -16 0 -15 2 5 8 34
11 60 11 35 0z m-148 -36 c-3 -3 -12 -4 -19 -1 -8 3 -5 6 6 6 11 1 17 -2 13
-5z m-40 -10 c-3 -3 -12 -4 -19 -1 -8 3 -5 6 6 6 11 1 17 -2 13 -5z m-60 -10
c-3 -3 -12 -4 -19 -1 -8 3 -5 6 6 6 11 1 17 -2 13 -5z m-1082 -254 c27 -7 27
-8 5 -8 -14 0 -36 4 -50 8 -20 6 -21 8 -5 8 11 0 34 -4 50 -8z m68 -17 c-7 -2
-19 -2 -25 0 -7 3 -2 5 12 5 14 0 19 -2 13 -5z m74 -9 c-3 -3 -12 -4 -19 -1
-8 3 -5 6 6 6 11 1 17 -2 13 -5z m110 -10 c-3 -3 -12 -4 -19 -1 -8 3 -5 6 6 6
11 1 17 -2 13 -5z m80 -10 c-3 -3 -12 -4 -19 -1 -8 3 -5 6 6 6 11 1 17 -2 13
-5z m163 0 c0 -8 -19 -13 -24 -6 -3 5 1 9 9 9 8 0 15 -2 15 -3z m150 -4 c0 -5
-5 -10 -11 -10 -5 0 -7 5 -4 10 3 6 8 10 11 10 2 0 4 -4 4 -10z m73 3 c-7 -2
-21 -2 -30 0 -10 3 -4 5 12 5 17 0 24 -2 18 -5z m60 0 c-7 -2 -21 -2 -30 0
-10 3 -4 5 12 5 17 0 24 -2 18 -5z m-240 -10 c-7 -2 -19 -2 -25 0 -7 3 -2 5
12 5 14 0 19 -2 13 -5z"/>
<path d="M5069 953 l-24 -28 28 24 c15 14 27 26 27 28 0 8 -8 1 -31 -24z"/>
<path d="M4941 850 c-28 -22 -51 -43 -51 -46 0 -4 21 11 48 32 62 49 67 54 60
54 -3 0 -29 -18 -57 -40z"/>
<path d="M4850 779 c-22 -18 -22 -19 -3 -10 12 6 25 16 28 21 9 15 3 12 -25
-11z"/>
<path d="M4772 726 c-46 -33 -53 -43 -14 -20 19 10 38 25 44 32 15 17 8 14
-30 -12z"/>
<path d="M4683 669 c-35 -22 -46 -37 -15 -20 22 13 58 40 52 41 -3 0 -20 -10
-37 -21z"/>
<path d="M2973 4698 c-8 -11 -54 -103 -58 -118 -1 -3 -5 -12 -8 -20 -4 -8 -9
-46 -11 -85 -3 -46 -24 -131 -61 -250 -31 -99 -58 -187 -60 -195 -9 -38 -94
-302 -98 -306 -3 -3 -13 -5 -23 -4 -119 7 -118 7 -128 -25 -5 -16 -20 -51 -33
-77 -13 -26 -24 -51 -24 -55 1 -10 -5 -28 -63 -217 -25 -83 -52 -153 -59 -158
-6 -4 -103 -8 -214 -8 -155 0 -203 -3 -204 -12 -2 -60 3 -503 6 -507 4 -3
2582 -5 2657 -2 15 1 17 24 16 261 l0 260 -469 0 -470 0 155 203 c84 111 160
201 166 199 34 -8 170 -3 210 8 145 39 263 149 309 288 23 68 28 176 9 217
-22 49 -48 33 -152 -95 -54 -66 -103 -120 -110 -120 -9 0 -58 9 -191 35 -11 2
-26 4 -32 4 -11 1 -91 156 -108 211 -5 14 11 41 62 102 37 46 78 94 91 108 53
59 38 100 -36 94 -141 -13 -289 -111 -352 -234 -49 -97 -58 -230 -21 -334 20
-57 20 -61 3 -80 -28 -33 -62 -72 -221 -255 -83 -95 -151 -176 -151 -180 0 -3
25 -30 55 -60 31 -29 63 -67 71 -82 14 -28 14 -29 -10 -29 -16 0 -27 7 -31 20
-3 11 -30 42 -59 70 -145 138 -213 204 -345 333 -124 121 -145 139 -151 122
-6 -16 -1 -23 30 -37 21 -9 45 -27 54 -39 18 -26 21 -79 7 -107 -5 -9 -14 -42
-20 -72 -13 -65 -15 -72 -35 -127 l-15 -42 37 -34 c20 -19 48 -46 61 -60 l24
-27 -101 0 c-75 0 -102 3 -102 13 0 6 13 53 29 102 54 171 61 197 61 225 0 15
7 41 16 58 22 44 6 67 -59 88 l-54 17 12 36 c7 20 57 180 111 356 62 202 108
337 126 365 31 49 43 88 53 170 4 30 9 58 12 63 2 4 -8 11 -22 17 -51 19 -71
21 -82 8z m-361 -1171 c8 -16 1 -53 -38 -184 l-49 -163 -64 0 c-56 0 -62 2
-56 18 4 9 26 80 50 157 55 178 53 173 83 189 31 16 59 10 74 -17z m183 -47
c20 -22 20 -24 -31 -187 l-35 -113 -59 0 c-33 0 -60 1 -60 3 0 1 5 18 11 37 5
19 12 42 14 50 49 178 76 230 120 230 12 0 30 -9 40 -20z"/>
<path d="M2360 4465 c-69 -15 -132 -42 -200 -89 -29 -20 -58 -36 -65 -36 -18
0 -73 -47 -104 -90 -14 -19 -35 -36 -46 -38 -31 -5 -84 -44 -153 -112 l-63
-62 58 -55 c32 -30 87 -84 123 -119 l65 -64 50 48 c70 66 122 132 130 165 4
15 10 27 14 27 3 0 78 -70 165 -154 153 -148 161 -153 182 -139 24 15 80 20
105 9 12 -5 19 3 31 33 l16 39 -184 177 -183 177 21 42 c32 65 108 130 175
151 32 10 66 18 75 18 21 -2 42 23 35 41 -13 32 -156 50 -247 31z"/>
<path d="M1929 2473 c-6 -410 17 -477 184 -523 61 -17 134 -18 1174 -18 1223
0 1186 -2 1251 61 56 54 68 117 70 348 l1 199 -1339 0 -1340 0 -1 -67z"/>
<path d="M6030 2434 c-79 -34 -98 -67 -170 -291 -70 -220 -87 -234 -237 -187
-48 15 -97 27 -108 26 -22 -1 -43 -25 -85 -100 l-30 -51 351 -116 c193 -64
352 -115 353 -113 28 37 76 131 76 146 0 15 -12 25 -47 37 -110 39 -129 47
-145 62 -40 36 -25 65 118 225 75 84 144 170 154 191 45 97 -23 187 -140 187
-30 -1 -71 -8 -90 -16z m114 -86 c2 -2 8 -12 13 -22 21 -38 -26 -90 -73 -81
-11 2 -25 4 -32 4 -38 3 -25 93 15 104 18 5 73 1 77 -5z"/>
</g>
</svg>
